<?xml version="1.0" standalone="no"?>
<!DOCTYPE svg PUBLIC "-//W3C//DTD SVG 20010904//EN"
 "http://www.w3.org/TR/2001/REC-SVG-20010904/DTD/svg10.dtd">
<svg version="1.0" xmlns="http://www.w3.org/2000/svg"
 width="140.000000pt" height="40.000000pt" viewBox="0 0 510.000000 58.000000"
 preserveAspectRatio="xMidYMid meet">
<metadata>
Created by potrace 1.16, written by Peter Selinger 2001-2019
</metadata>
<g transform="translate(0.000000,70.000000) scale(0.100000,-0.100000)"
fill="#fff" stroke="none">
<path d="M20 349 l0 -210 23 3 c22 3 22 6 25 158 l3 154 64 -97 c44 -64 72
-97 84 -97 12 0 40 32 82 97 l64 97 3 -157 3 -157 24 0 25 0 0 210 0 210 -23
0 c-18 0 -38 -24 -97 -115 -41 -63 -78 -115 -82 -115 -3 0 -39 52 -80 115 -57
91 -78 115 -95 115 l-23 0 0 -211z"/>
<path d="M558 531 l-33 -29 0 -152 0 -152 33 -29 c31 -28 35 -29 137 -29 173
0 185 14 185 210 0 196 -12 210 -185 210 -102 0 -106 -1 -137 -29z m246 -32
c26 -20 26 -22 26 -150 0 -166 -2 -169 -125 -169 -78 0 -88 2 -110 25 -24 23
-25 30 -25 145 0 115 1 122 25 145 21 22 33 25 103 25 65 0 84 -4 106 -21z"/>
<path d="M2330 350 l0 -210 25 0 c25 0 25 0 25 95 l0 95 130 0 130 0 0 -95 c0
-88 1 -95 20 -95 19 0 20 7 20 210 0 203 -1 210 -20 210 -19 0 -20 -7 -20 -95
l0 -95 -130 0 -130 0 0 95 c0 95 0 95 -25 95 l-25 0 0 -210z"/>
<path d="M2843 550 c-42 -17 -57 -56 -61 -161 -6 -135 3 -186 38 -221 28 -28
30 -28 145 -28 115 0 117 0 145 28 35 35 44 86 38 221 -4 107 -19 144 -64 161
-31 12 -211 12 -241 0z m226 -49 c27 -27 34 -71 29 -186 -4 -126 -13 -135
-133 -135 -67 0 -87 4 -106 19 -23 18 -24 25 -24 151 0 126 1 133 24 151 34
28 182 28 210 0z"/>
<path d="M980 295 l0 -155 25 0 25 0 0 110 c0 96 3 113 19 129 24 24 79 36
126 27 47 -9 55 -32 55 -162 l0 -104 25 0 25 0 0 109 c0 125 -11 166 -51 186
-36 19 -136 19 -171 1 -24 -13 -28 -13 -28 0 0 8 -10 14 -25 14 l-25 0 0 -155z"/>
<path d="M1420 437 c-41 -21 -51 -53 -48 -155 3 -89 5 -95 31 -118 25 -22 37
-24 123 -24 87 0 97 2 119 25 31 30 34 75 5 75 -12 0 -24 -10 -29 -24 -12 -30
-29 -36 -102 -36 -69 0 -99 21 -99 70 l0 30 125 0 125 0 0 56 c0 48 -4 59 -29
85 -28 27 -34 29 -113 29 -46 0 -94 -6 -108 -13z m178 -43 c14 -10 22 -25 22
-45 l0 -29 -100 0 -100 0 0 25 c0 43 32 65 98 65 36 0 66 -6 80 -16z"/>
<path d="M1761 319 c4 -129 4 -131 32 -155 24 -20 39 -24 97 -24 38 0 80 4 94
10 25 9 26 9 26 -33 0 -24 -5 -48 -12 -55 -16 -16 -160 -16 -176 0 -7 7 -12
20 -12 29 0 22 -13 31 -34 23 -26 -10 -14 -75 18 -96 6 -4 59 -8 118 -8 118 0
133 6 143 63 3 18 5 109 3 202 -3 166 -4 170 -25 173 -21 3 -21 -1 -25 -112
-4 -139 -9 -148 -97 -154 -50 -4 -62 -1 -80 17 -19 19 -21 32 -21 136 l0 115
-26 0 -26 0 3 -131z"/>
<path d="M3240 324 c0 -125 0 -126 29 -155 27 -26 36 -29 96 -29 36 0 76 5 87
11 14 8 23 8 31 0 6 -6 19 -11 29 -11 17 0 18 12 18 156 l0 155 -22 -3 c-22
-3 -23 -7 -26 -114 -2 -96 -5 -114 -22 -129 -28 -26 -113 -32 -145 -11 -24 16
-25 19 -25 136 l0 120 -25 0 -25 0 0 -126z"/>
<path d="M3650 430 c-15 -15 -20 -33 -20 -69 0 -69 19 -81 127 -81 89 0 113
-12 113 -54 0 -38 -21 -47 -107 -44 -70 3 -79 5 -88 26 -12 28 -55 31 -55 3 0
-10 9 -30 21 -45 20 -25 24 -26 129 -26 106 0 109 1 130 27 17 22 21 37 17 72
-7 66 -22 75 -135 81 l-97 5 -3 34 c-4 44 8 51 90 51 60 0 68 -2 86 -27 13
-17 25 -24 36 -20 22 9 20 39 -4 65 -19 20 -31 22 -120 22 -87 0 -103 -3 -120
-20z"/>
<path d="M4045 438 c-31 -18 -43 -39 -50 -91 -11 -75 3 -156 30 -183 22 -22
33 -24 119 -24 84 0 98 3 120 23 35 30 39 71 9 75 -15 2 -23 -2 -23 -11 0 -31
-35 -47 -101 -47 -73 0 -84 5 -98 43 -22 57 -22 57 119 57 l130 0 0 39 c0 57
-19 100 -51 116 -34 18 -175 20 -204 3z m161 -34 c21 -6 44 -42 44 -69 0 -12
-20 -15 -106 -15 l-106 0 6 28 c10 41 41 62 95 62 25 0 56 -3 67 -6z"/>
</g>
<text fill="#f44336" font-size="28" font-family="Verdana" x="435" y="70">BETA</text>
</svg>
